<svg width="49" height="49" viewBox="0 0 49 49" fill="none" xmlns="http://www.w3.org/2000/svg">
<path d="M9.52626 41.5683L6.15726 3.76683H43.1893L39.8158 41.5623L24.6508 45.7668L9.52626 41.5683Z" fill="#1572B6"/>
<path d="M24.6733 42.5538L36.9283 39.1563L39.8113 6.85834H24.6733V42.5538Z" fill="#33A9DC"/>
<path d="M24.6733 20.5533H30.8083L31.2313 15.8058H24.6733V11.1693H36.2983L36.1873 12.4128L35.0488 25.1898H24.6733V20.5533Z" fill="white"/>
<path d="M24.7018 32.5938L24.6808 32.5998L19.5178 31.2048L19.1878 27.5073H14.5333L15.1828 34.7868L24.6793 37.4238L24.7018 37.4178V32.5938Z" fill="#EBEBEB"/>
<path d="M30.4138 24.9933L29.8558 31.2018L24.6853 32.5968V37.4208L34.1893 34.7868L34.2598 34.0038L35.0653 24.9933H30.4138Z" fill="white"/>
<path d="M24.6898 11.1693V15.8058H13.4908L13.3978 14.7633L13.1863 12.4128L13.0753 11.1693H24.6898ZM24.6733 20.5533V25.1898H19.5748L19.4818 24.1473L19.2718 21.7968L19.1608 20.5533H24.6733Z" fill="#EBEBEB"/>
</svg>
