<svg width="48" height="49" viewBox="0 0 48 49" fill="none" xmlns="http://www.w3.org/2000/svg">
<path d="M8.85302 41.5683L5.48252 3.76683H42.5175L39.1425 41.5623L23.9775 45.7668L8.85302 41.5683Z" fill="#E44F26"/>
<path d="M24 42.5538L36.255 39.1563L39.138 6.85834H24V42.5538Z" fill="#F1662A"/>
<path d="M24 20.8773H17.865L17.442 16.1298H24V11.4933H12.375L12.486 12.7383L13.6245 25.5138H24V20.8773ZM24 32.9178L23.979 32.9238L18.816 31.5303L18.486 27.8328H13.8315L14.481 35.1108L23.979 37.7478L24 37.7418V32.9178Z" fill="#EBEBEB"/>
<path d="M23.9835 20.8773V25.5138H29.6925L29.1555 31.5273L23.9835 32.9223V37.7463L33.489 35.1108L33.558 34.3278L34.647 22.1223L34.761 20.8773H23.9835ZM23.9835 11.4933V16.1298H35.1825L35.2755 15.0888L35.487 12.7383L35.598 11.4933H23.9835Z" fill="white"/>
</svg>
