<svg width="49" height="49" viewBox="0 0 49 49" fill="none" xmlns="http://www.w3.org/2000/svg">
<path d="M3.34653 3.76683H45.3465V45.7668H3.34653V3.76683Z" fill="#F5DE19"/>
<path d="M31.56 36.5793C31.9179 37.3062 32.4739 37.9172 33.1639 38.3418C33.8539 38.7664 34.6499 38.9874 35.46 38.9793C37.095 38.9793 38.1405 38.1618 38.1405 37.0293C38.1405 35.6793 37.0665 35.1963 35.2665 34.4088L34.2795 33.9858C31.4295 32.7723 29.5395 31.2528 29.5395 28.0398C29.5395 25.0803 31.7895 22.8258 35.319 22.8258C36.4616 22.7433 37.6031 22.999 38.6013 23.5611C39.5995 24.1231 40.4101 24.9666 40.932 25.9863L37.8465 27.9588C37.6456 27.4532 37.2956 27.0206 36.8432 26.7184C36.3907 26.4163 35.8571 26.2588 35.313 26.2668C35.0757 26.2431 34.836 26.269 34.6092 26.343C34.3824 26.417 34.1735 26.5374 33.9959 26.6966C33.8182 26.8558 33.6756 27.0502 33.5773 27.2675C33.4789 27.4849 33.4269 27.7203 33.4245 27.9588C33.4245 29.1423 34.158 29.6223 35.8515 30.3588L36.8385 30.7818C40.1925 32.2203 42.0885 33.6858 42.0885 36.9813C42.0885 40.5348 39.297 42.4818 35.5485 42.4818C34.088 42.5749 32.6317 42.2433 31.3554 41.527C30.0792 40.8108 29.0375 39.7405 28.356 38.4453L31.56 36.5793ZM17.6175 36.9213C18.237 38.0208 18.801 38.9508 20.157 38.9508C21.453 38.9508 22.272 38.4438 22.272 36.4713V23.0508H26.2185V36.5238C26.2185 40.6098 23.8185 42.4698 20.325 42.4698C19.0902 42.5373 17.8638 42.2296 16.8071 41.587C15.7504 40.9445 14.9128 39.9973 14.4045 38.8698L17.6175 36.9213Z" fill="black"/>
</svg>
