<svg width="49" height="49" viewBox="0 0 49 49" fill="none" xmlns="http://www.w3.org/2000/svg">
<path d="M24.0198 27.9195C26.0908 27.9195 27.7698 26.2406 27.7698 24.1695C27.7698 22.0985 26.0908 20.4195 24.0198 20.4195C21.9487 20.4195 20.2698 22.0985 20.2698 24.1695C20.2698 26.2406 21.9487 27.9195 24.0198 27.9195Z" fill="#00D8FF"/>
<path d="M24.0198 32.7675C19.5125 32.8766 15.0165 32.269 10.6998 30.9675C8.70571 30.3354 6.84588 29.3397 5.21428 28.0305C4.59167 27.5833 4.07318 27.0067 3.69439 26.3403C3.31559 25.6738 3.08546 24.9333 3.01978 24.1695C3.01978 21.69 5.74378 19.26 10.3068 17.67C14.7389 16.2612 19.3697 15.5784 24.0198 15.648C28.6078 15.5839 33.1766 16.2544 37.5528 17.634C39.4732 18.2463 41.27 19.1939 42.8598 20.433C43.4717 20.8594 43.9825 21.4151 44.3557 22.0608C44.729 22.7066 44.9557 23.4265 45.0198 24.1695C45.0198 26.7465 41.9748 29.358 37.0698 30.981C32.8367 32.2401 28.4355 32.8426 24.0198 32.7675ZM24.0198 17.442C19.5709 17.3826 15.141 18.0317 10.8963 19.365C6.69628 20.8305 4.81378 22.8345 4.81378 24.165C4.81378 25.557 6.83728 27.7455 11.2803 29.265C15.4099 30.5038 19.7097 31.0805 24.0198 30.9735C28.2444 31.0491 32.4557 30.4775 36.5073 29.2785C41.1198 27.75 43.2198 25.5585 43.2198 24.1695C43.1441 23.6929 42.9704 23.2371 42.7096 22.831C42.4489 22.4249 42.1067 22.0772 41.7048 21.81C40.2824 20.7108 38.6773 19.8709 36.9633 19.329C32.7768 18.0147 28.4072 17.3777 24.0198 17.442Z" fill="#00D8FF"/>
<path d="M15.4998 42.873C14.8 42.8891 14.1085 42.7193 13.4958 42.381C11.3478 41.142 10.6038 37.569 11.5053 32.8215C12.4992 28.2782 14.2215 23.9255 16.6053 19.932C18.8414 15.9257 21.704 12.3029 25.0848 9.20105C26.5745 7.8431 28.2931 6.75986 30.1608 6.00155C30.8363 5.68496 31.5732 5.52084 32.3193 5.52084C33.0653 5.52084 33.8022 5.68496 34.4778 6.00155C36.7113 7.28855 37.4508 11.2305 36.4083 16.29C35.3836 20.5869 33.7061 24.7012 31.4343 28.4895C29.2769 32.4486 26.5043 36.0398 23.2203 39.129C21.6764 40.5402 19.8848 41.6535 17.9358 42.4125C17.1555 42.7021 16.3319 42.8578 15.4998 42.873ZM18.1593 20.823C15.8854 24.647 14.2348 28.8086 13.2693 33.1515C12.4398 37.524 13.2363 40.1535 14.3943 40.8225C15.5943 41.517 18.5073 40.8585 22.0443 37.7685C25.1793 34.809 27.8256 31.3714 29.8848 27.5835C32.0612 23.9618 33.6703 20.0283 34.6563 15.9195C35.6373 11.157 34.7898 8.24105 33.5868 7.54805C33.1359 7.37529 32.6541 7.29795 32.1718 7.32093C31.6895 7.34391 31.2172 7.4667 30.7848 7.68155C29.1223 8.36757 27.5939 9.34149 26.2698 10.5585C23.0398 13.5297 20.3053 16.998 18.1698 20.832L18.1593 20.823Z" fill="#00D8FF"/>
<path d="M32.5353 42.8925C30.5028 42.8925 27.9213 41.6625 25.2333 39.351C21.7933 36.2209 18.8822 32.5551 16.6128 28.4955C14.2589 24.5571 12.5503 20.2674 11.5518 15.789C11.1187 13.8188 11.0385 11.7873 11.3148 9.78904C11.3787 9.04775 11.6044 8.3295 11.976 7.68493C12.3477 7.04037 12.8562 6.48519 13.4658 6.05854C15.6963 4.76704 19.4808 6.09454 23.3433 9.52354C26.5542 12.5568 29.2809 16.0646 31.4283 19.9245C33.7807 23.7711 35.5072 27.9668 36.5433 32.355C36.995 34.3976 37.0646 36.5061 36.7488 38.574C36.6736 39.3367 36.4345 40.074 36.0476 40.7355C35.6608 41.397 35.1355 41.9671 34.5078 42.4065C33.905 42.7406 33.2242 42.9084 32.5353 42.8925ZM18.1653 27.5925C20.3424 31.4722 23.1232 34.9806 26.4033 37.986C29.7768 40.8885 32.4528 41.5125 33.6033 40.836C34.8033 40.1385 35.6883 37.2915 34.7763 32.685C33.7771 28.4954 32.1211 24.4904 29.8698 20.8185C27.8205 17.1242 25.2179 13.7653 22.1523 10.8585C18.5163 7.63054 15.5673 6.90904 14.3658 7.60504C13.9913 7.90936 13.684 8.28803 13.4632 8.71712C13.2425 9.14621 13.1131 9.61642 13.0833 10.098C12.8448 11.8802 12.9225 13.6904 13.3128 15.4455C14.2732 19.7282 15.9119 23.83 18.1668 27.5955L18.1653 27.5925Z" fill="#00D8FF"/>
</svg>
